<svg width="447.732666015625" height="344.009521484375" xmlns="http://www.w3.org/2000/svg">
 <defs>
  <linearGradient id="SVGID_1_" x1="0.02326" y1="0.91271" x2="0.91061" y2="0.29992">
   <stop offset="0" style="stop-color:#9FC93C" stop-color="#9FC93C"/>
   <stop offset="0.1977" style="stop-color:#9BC53C" stop-color="#9BC53C"/>
   <stop offset="0.3833" style="stop-color:#90BA3A" stop-color="#90BA3A"/>
   <stop offset="0.5641" style="stop-color:#7DA838" stop-color="#7DA838"/>
   <stop offset="0.742" style="stop-color:#628E35" stop-color="#628E35"/>
   <stop offset="0.916" style="stop-color:#406E30" stop-color="#406E30"/>
   <stop offset="1" style="stop-color:#2D5B2E" stop-color="#2D5B2E"/>
  </linearGradient>
 </defs>
 <g>
  <title>background</title>
  <rect x="-1" y="-1" width="449.732666" height="346.009521" id="canvas_background" fill="none"/>
 </g>
 <g>
  <title>Layer 1</title>
  <g id="svg-content">
   <g id="svg-logo" class="svg-element" transform="matrix(0.8373771017560246,0,0,0.8373771017560246,250.91482706855425,117.37544455323282) ">
    <g id="svg_1">
     <g id="svg_2">
      <path fill="#1EA3D4" d="m-18.114711,145.543381c13.6,-0.6 27.5,-3.2 40.6,-8.6l-95.8,-9.7c18.5,12.8 39.6,18.9 55.2,18.3z" id="svg_3"/>
      <polygon fill="#1EA3D4" points="-85.21470975875854,-11.75661325454712 24.885281085968018,-7.256613254547119 -4.914714336395264,-35.356616497039795 " id="svg_4"/>
      <path fill="#1284AB" d="m24.885289,-7.256619l36.9,1.5l0.2,-0.1c0,0 -14.5,-24.2 -48.1,-35l-18.8,5.5l29.8,28.1z" id="svg_5"/>
      <polygon fill="#035689" points="40.18528413772583,7.043385982513428 61.78527498245239,-5.756613254547119 24.885281085968018,-7.256613254547119 " id="svg_6"/>
      <path fill="#035689" d="m-58.014711,68.043381c-2.2,-5.1 -3.3,-10.9 -3.5,-17.2l-16.3,4.6l19.8,12.6z" id="svg_7"/>
      <path fill="#035689" d="m73.885289,87.843381c-10.4,-3.3 -36.6,-4.6 -61.2,-6.2c0,0 -9.7,8.4 -23.8,10.7l51.1,35.3c13.7,-9.2 25.6,-22.1 33.9,-39.8z" id="svg_8"/>
      <path fill="#1EA3D4" d="m13.985289,-40.856619c-6.5,-2.1 -13.8,-3.7 -21.8,-4.5c-2.7,-0.3 -5.4,-0.4 -8.2,-0.5l11.2,10.5l18.8,-5.5z" id="svg_9"/>
      <path fill="#046D85" d="m-11.014711,92.343381c-4.5,0.7 -9.4,0.8 -14.7,-0.2c-15.9,-3.1 -27,-11.5 -32.3,-24l-19.8,-12.6l-36,10.2c4.7,27.6 21.2,48.2 40.5,61.5l95.8,9.7c6.1,-2.5 12,-5.6 17.6,-9.3l-51.1,-35.3z" id="svg_10"/>
      <path fill="#1EA3D4" d="m-113.814711,32.543381c-0.8,4.9 -1.2,9.9 -1.3,15.1c-0.1,6.3 0.4,12.3 1.3,18l36,-10.2l-36,-22.9z" id="svg_11"/>
      <path fill="#1180AB" d="m-61.514711,50.843381c-0.1,-4.3 0.2,-8.8 1.1,-13.6c4.4,-25.8 32.8,-34 50.1,-31.4c10.8,1.7 23.4,9.4 27.7,15.8l22.7,-14.6l-15.2,-14.3l-110.1,-4.5l-10.9,3.2c-8.7,11.3 -15,25 -17.7,41.1l35.9,22.9l16.4,-4.6z" id="svg_12"/>
      <path fill="#1CA9CD" d="m-4.914711,-35.356619l-11.1,-10.5c-28.2,-0.5 -57.8,11.2 -77.2,33.8l8,0.3l80.3,-23.6z" id="svg_13"/>
      <path fill="#035689" d="m-93.214711,-12.056619c-1,1.1 -1.9,2.3 -2.9,3.5l10.9,-3.2l-8,-0.3z" id="svg_14"/>
     </g>
     <path fill="url(#SVGID_1_)" d="m-85.914711,71.843381c0,0 29.8,28 66.5,28.2c32.8,0.1 57.5,-20.4 93.4,-12.2c0,0 -21.2,-42.9 -58.9,-46.6c-45.3,-4.3 -70.6,40.3 -101,30.6z" id="svg_15"/>
    </g>
   </g>
   <g id="svg-name" class="svg-element" transform="matrix(0.9979997342207407,0,0,0.997999705839094,108.02178021287624,314.0070272825662) "/>
   <g id="svg-slogan" class="svg-element" transform="matrix(1,0,0,1,334.5,356.5) "/>
   <g id="svg-atext" class="svg-element" transform="matrix(1,0,0,1,334.5,249.5) "/>
  </g>
 </g>
</svg>