<svg width="225" height="50" xmlns="http://www.w3.org/2000/svg">

 <g>
  <title>background</title>
  <rect fill="none" id="canvas_background" height="52" width="227" y="-1" x="-1"/>
 </g>
 <g>
  <title>Layer 1</title>
  <g transform="matrix(0.9980000110741358,0,0,0.997999705839094,219.52177905009202,295.0070272825662) " class="svg-element" id="svg-name">
   <g id="svg_1" fill="#0070c0">
    <path id="svg_2" d="m-217.24289,-254.48927l30.47,0l0,-15.33l0,0q0.05,-3.13 -1.15,-4.33l0,0l0,0q-1.2,-1.19 -4.32,-1.14l0,0l-12.5,0l0,3.81l6.44,0l0,0q2.15,-0.2 1.96,1.95l0,0l0,11.23l-11.33,0l0,-29.4l20.51,0l0,-3.8l-30.08,0l0,37.01zm38.87,0l25.68,0l0,-27.15l-9.57,0l0,23.34l-6.54,0l0,-23.34l-9.57,0l0,27.15zm33.98,0l25.68,0l0,-27.15l-9.57,0l0,23.34l-6.54,0l0,-23.34l-9.57,0l0,27.15zm50.88,5.08l9.47,0l0,-26.76l0,0q0.05,-3.13 -1.15,-4.32l0,0l0,0q-1.19,-1.2 -4.32,-1.15l0,0l-20.89,0l0,25.59l16.89,0l0,6.64m0,-26.47l0,16.02l-7.32,0l0,-17.97l5.37,0l0,0q2.15,-0.2 1.95,1.95l0,0zm23.14,-5.76l-6.25,0l0,3.81l0.59,0l0,0q1.66,-0.1 1.56,1.56l0,0l0,21.78l9.57,0l0,-21.68l0,0q0.05,-3.13 -1.14,-4.32l0,0l0,0q-1.2,-1.2 -4.33,-1.15l0,0m-4.1,-4.4l9.57,0l0,-7.03l-9.57,0l0,7.03zm19.92,31.55l25.4,0l0,-21.68l0,0q0.04,-3.13 -1.15,-4.32l0,0l0,0q-1.2,-1.2 -4.32,-1.15l0,0l-16.51,0l0,3.81l10.45,0l0,0q2.15,-0.2 1.95,1.95l0,0l0,4.1l-15.82,0l0,17.29m9.48,-3.81l0,-9.67l6.34,0l0,9.67l-6.34,0zm23.24,3.81l25.49,0l0,-21.68l0,0q0.05,-3.13 -1.15,-4.32l0,0l0,0q-1.2,-1.2 -4.32,-1.15l0,0l-20.02,0l0,27.15m16.02,-3.81l-6.55,0l0,-19.53l4.59,0l0,0q2.15,-0.2 1.96,1.95l0,0l0,17.58z"/>
   </g>
  </g>
 </g>
</svg>